<svg height="136" viewBox="0 0 157 136" width="157" xmlns="http://www.w3.org/2000/svg"><g fill="none" fill-rule="evenodd" transform="translate(1.5 1.5)"><circle cx="11.5" cy="11.5" r="11.5" stroke="#fff" stroke-width="3"/><circle cx="94.5" cy="11.5" r="11.5" stroke="#fff" stroke-width="3"/><path d="m146.397096 88.3578584 1.302469 1.5323351c-5.095364 5.3067-12.261724 8.6098065-20.199565 8.6098065-6.59995 0-12.666563-2.2834898-17.452881-6.1035128l1.29628-1.52451c4.436709 3.5233848 10.050873 5.6280228 16.156601 5.6280228 7.444034 0 14.157396-3.1283774 18.897096-8.1421416zm-18.897096-37.8578584c11.045695 0 20 8.954305 20 20s-8.954305 20-20 20c-4.622919 0-8.879501-1.5684779-12.266617-4.2023058l1.36497-1.6058758c3.018509 2.3221711 6.798833 3.7029184 10.901647 3.7029184 9.88299 0 17.894737-8.0117465 17.894737-17.8947368s-8.011747-17.8947368-17.894737-17.8947368c-1.510926 0-2.978116.1872565-4.379629.5398279l-.715047-1.9903869c1.626562-.4272053 3.334051-.6547042 5.094676-.6547042zm0-8c15.463973 0 28 12.536027 28 28 0 5.0294927-1.326069 9.7492654-3.64765 13.8287614-.596071-.3534206-1.171634-.6900573-1.728561-1.0109479 2.149598-3.781801 3.376211-8.1565619 3.376211-12.8178135 0-14.3594035-11.640597-26-26-26-2.471713 0-4.862868.3449041-7.127965.9892097l-.677128-1.8869273c2.477434-.7176419 5.096345-1.1022824 7.805093-1.1022824zm-18.321659 6.825917 1.30465 1.515934c-5.502431 4.7673284-8.982991 11.8062745-8.982991 19.658149 0 4.3965589 1.09126 8.5382404 3.017697 12.1689611l-1.761676.9477418c-2.078478-3.9128005-3.256021-8.3772368-3.256021-13.1167029 0-8.4579341 3.75013-16.0399784 9.678341-21.174083zm5.221155 6.0615307 1.373158 1.5958661c-3.778287 3.2809428-6.167391 8.1198119-6.167391 13.5166862 0 3.0055054.740944 5.8379541 2.050133 8.3246463l-1.854259.9979832c-1.46932-2.7837199-2.301137-5.9560341-2.301137-9.3226295 0-6.034909 2.672928-11.4455223 6.899496-15.1125523z" fill="#fff" fill-rule="nonzero"/><circle cx="62.5" cy="121.5" r="11.5" stroke="#fff" stroke-width="3"/><path d="m23.5 12.5h59" stroke="#fff" stroke-width="3"/><path d="m118.5 78.5-47 36" stroke="#fff" stroke-width="3"/><path d="m100.5 22.5 22.5 38.5" stroke="#fff" stroke-width="3"/><g fill-rule="nonzero"><path d="m132.5 70.5c0 2.7614-2.239 5-5 5s-5-2.2386-5-5 2.239-5 5-5 5 2.2386 5 5z" fill="#484747"/><circle cx="127.5" cy="70.5" r="11.5" stroke="#fff" stroke-width="3"/><path d="m133.982 70.5c0 3.5899-2.91 6.5-6.5 6.5-3.589 0-6.5-2.9101-6.5-6.5s2.911-6.5 6.5-6.5c3.59 0 6.5 2.9101 6.5 6.5z" fill="#ffa51f"/><path d="m48.332 76.764c1.968 0 3.528-.384 4.272-.768l-.408-1.68c-.84.408-2.136.672-3.432.672-3.912 0-6.192-2.52-6.192-6.504 0-4.248 2.52-6.672 6.312-6.672 1.344 0 2.472.288 3.24.672l.528-1.704c-.552-.288-1.848-.72-3.84-.72-5.016 0-8.448 3.408-8.448 8.496 0 5.328 3.408 8.208 7.968 8.208zm9.312 0c1.656 0 2.904-.816 3.552-1.728h.072l.168 1.464h1.896c-.12-.792-.168-1.776-.168-2.784v-4.344c0-2.304-.864-4.728-4.416-4.728-1.464 0-2.88.408-3.84 1.008l.48 1.416c.816-.552 1.944-.864 3.048-.864 2.376-.024 2.64 1.728 2.64 2.664v.24c-4.488-.024-6.984 1.512-6.984 4.32 0 1.68 1.2 3.336 3.552 3.336zm.528-1.56c-1.056 0-1.968-.624-1.968-2.016 0-2.256 2.616-2.664 4.92-2.616v2.016c0 .192-.024.432-.096.672-.336.984-1.32 1.944-2.856 1.944zm10.872 1.56c2.712 0 4.32-1.44 4.32-3.504 0-1.728-1.056-2.736-3.048-3.48-1.512-.6-2.184-1.032-2.184-1.992 0-.864.672-1.584 1.92-1.584 1.08 0 1.92.408 2.376.696l.504-1.536c-.624-.408-1.656-.72-2.832-.72-2.472 0-4.008 1.536-4.008 3.408 0 1.392.984 2.52 3.096 3.288 1.536.576 2.136 1.104 2.136 2.112 0 .984-.72 1.728-2.232 1.728-1.056 0-2.16-.432-2.808-.816l-.504 1.584c.816.48 1.992.816 3.264.816zm10.608 0c.816 0 1.464-.144 1.872-.288l-.096-1.608c-.312.096-.648.144-1.224.144-1.176 0-1.584-.816-1.584-2.256v-6.264h3.024v-1.608h-3.024v-2.784l-2.064.624v2.16h-1.8v1.608h1.8v6.336c0 1.368.24 2.4.816 3.048.504.552 1.296.888 2.28.888z" fill="#fff"/><path d="m34.324 56.5v-1.752h-6.912v-14.424h-2.112v16.176zm6.648.264c2.784 0 5.784-1.872 5.784-6.168 0-3.528-2.256-5.952-5.592-5.952-3.192 0-5.76 2.28-5.76 6.144 0 3.672 2.448 5.976 5.568 5.976zm.096-1.584c-2.064 0-3.504-1.92-3.504-4.464 0-2.184 1.08-4.488 3.552-4.488 2.496 0 3.48 2.472 3.48 4.44 0 2.616-1.512 4.512-3.528 4.512zm13.296 1.584c1.56 0 2.784-.408 3.336-.672l-.36-1.584c-.6.264-1.392.552-2.592.552-2.304 0-4.032-1.656-4.032-4.344 0-2.4 1.44-4.392 4.104-4.392 1.152 0 1.944.288 2.448.552l.48-1.608c-.576-.312-1.68-.624-2.928-.624-3.792 0-6.24 2.616-6.24 6.192 0 3.552 2.28 5.928 5.784 5.928zm8.448 0c1.656 0 2.904-.816 3.552-1.728h.072l.168 1.464h1.896c-.12-.792-.168-1.776-.168-2.784v-4.344c0-2.304-.864-4.728-4.416-4.728-1.464 0-2.88.408-3.84 1.008l.48 1.416c.816-.552 1.944-.864 3.048-.864 2.376-.024 2.64 1.728 2.64 2.664v.24c-4.488-.024-6.984 1.512-6.984 4.32 0 1.68 1.2 3.336 3.552 3.336zm.528-1.56c-1.056 0-1.968-.624-1.968-2.016 0-2.256 2.616-2.664 4.92-2.616v2.016c0 .192-.024.432-.096.672-.336.984-1.32 1.944-2.856 1.944zm10.512 1.296v-17.04h-2.112v17.04z" fill="#fff"/></g></g></svg>