<?xml version="1.0" encoding="UTF-8"?>
<svg width="157px" height="136px" viewBox="0 0 157 136" version="1.1" xmlns="http://www.w3.org/2000/svg" xmlns:xlink="http://www.w3.org/1999/xlink">
    <title>Group</title>
    <g id="Page-1" stroke="none" stroke-width="1" fill="none" fill-rule="evenodd">
        <g id="Group" transform="translate(1.500000, 1.500000)">
            <circle id="Oval" stroke="#FFFFFF" stroke-width="3" cx="11.5" cy="11.5" r="11.5"></circle>
            <circle id="Oval" stroke="#FFFFFF" stroke-width="3" cx="94.5" cy="11.5" r="11.5"></circle>
            <path d="M146.397096,88.3578584 L147.699565,89.8901935 C142.604201,95.1968935 135.437841,98.5 127.5,98.5 C120.90005,98.5 114.833437,96.2165102 110.047119,92.3964872 L111.343399,90.8719772 C115.780108,94.395362 121.394272,96.5 127.5,96.5 C134.944034,96.5 141.657396,93.3716226 146.397096,88.3578584 Z M127.5,50.5 C138.545695,50.5 147.5,59.454305 147.5,70.5 C147.5,81.545695 138.545695,90.5 127.5,90.5 C122.877081,90.5 118.620499,88.9315221 115.233383,86.2976942 L116.598353,84.6918184 C119.616862,87.0139895 123.397186,88.3947368 127.5,88.3947368 C137.38299,88.3947368 145.394737,80.3829903 145.394737,70.5 C145.394737,60.6170097 137.38299,52.6052632 127.5,52.6052632 C125.989074,52.6052632 124.521884,52.7925197 123.120371,53.1450911 L122.405324,51.1547042 C124.031886,50.7274989 125.739375,50.5 127.5,50.5 Z M127.5,42.5 C142.963973,42.5 155.5,55.036027 155.5,70.5 C155.5,75.5294927 154.173931,80.2492654 151.85235,84.3287614 C151.256279,83.9753408 150.680716,83.6387041 150.123789,83.3178135 C152.273387,79.5360125 153.5,75.1612516 153.5,70.5 C153.5,56.1405965 141.859403,44.5 127.5,44.5 C125.028287,44.5 122.637132,44.8449041 120.372035,45.4892097 L119.694907,43.6022824 C122.172341,42.8846405 124.791252,42.5 127.5,42.5 Z M109.178341,49.325917 L110.482991,50.841851 C104.98056,55.6091794 101.5,62.6481255 101.5,70.5 C101.5,74.8965589 102.59126,79.0382404 104.517697,82.6689611 L102.756021,83.6167029 C100.677543,79.7039024 99.5,75.2394661 99.5,70.5 C99.5,62.0420659 103.25013,54.4600216 109.178341,49.325917 Z M114.399496,55.3874477 L115.772654,56.9833138 C111.994367,60.2642566 109.605263,65.1031257 109.605263,70.5 C109.605263,73.5055054 110.346207,76.3379541 111.655396,78.8246463 L109.801137,79.8226295 C108.331817,77.0389096 107.5,73.8665954 107.5,70.5 C107.5,64.465091 110.172928,59.0544777 114.399496,55.3874477 Z" id="Combined-Shape" fill="#FFFFFF" fill-rule="nonzero"></path>
            <circle id="Oval" stroke="#FFFFFF" stroke-width="3" cx="62.5" cy="121.5" r="11.5"></circle>
            <line x1="23.5" y1="12.5" x2="82.5" y2="12.5" id="Path" stroke="#FFFFFF" stroke-width="3"></line>
            <line x1="118.5" y1="78.5" x2="71.5" y2="114.5" id="Path" stroke="#FFFFFF" stroke-width="3"></line>
            <line x1="100.5" y1="22.5" x2="123" y2="61" id="Path" stroke="#FFFFFF" stroke-width="3"></line>
            <path d="M132.5,70.5 C132.5,73.2614 130.261,75.5 127.5,75.5 C124.739,75.5 122.5,73.2614 122.5,70.5 C122.5,67.7386 124.739,65.5 127.5,65.5 C130.261,65.5 132.5,67.7386 132.5,70.5 Z" id="Path" fill="#484747" fill-rule="nonzero"></path>
            <circle id="Oval" stroke="#FFFFFF" stroke-width="3" fill-rule="nonzero" cx="127.5" cy="70.5" r="11.5"></circle>
            <path d="M133.982,70.5 C133.982,74.0899 131.072,77 127.482,77 C123.893,77 120.982,74.0899 120.982,70.5 C120.982,66.9101 123.893,64 127.482,64 C131.072,64 133.982,66.9101 133.982,70.5 Z" id="Path" fill="#FFA51F" fill-rule="nonzero"></path>
            <text id="Cast" font-family="MyriadPro-Regular, Myriad Pro" font-size="24" font-weight="normal" fill="#FFFFFF">
                <tspan x="39.5" y="76.5">Cast</tspan>
            </text>
            <text id="Local" font-family="MyriadPro-Regular, Myriad Pro" font-size="24" font-weight="normal" fill="#FFFFFF">
                <tspan x="23.5" y="56.5">Local</tspan>
                <tspan x="23.5" y="80.5">   </tspan>
            </text>
        </g>
    </g>
</svg>